<svg xmlns="http://www.w3.org/2000/svg" width="43" height="43" viewBox="0 0 43 43" fill="none"><g opacity="0.5"><path fill-rule="evenodd" clip-rule="evenodd" d="M36.7027 36.7027C32.6418 40.7635 27.2428 43 21.5 43C15.7572 43 10.3582 40.7635 6.29728 36.7027C2.23642 32.6418 0 27.2428 0 21.5C0 9.6448 9.6448 0 21.5 0C27.2428 0 32.6418 2.23642 36.7027 6.29728C40.7635 10.3582 43 15.7572 43 21.5C43 27.2428 40.7635 32.6418 36.7027 36.7027ZM6.82353 6.82353C2.90318 10.7439 0.744141 15.9562 0.744141 21.5002C0.744141 27.0443 2.90318 32.2565 6.82353 36.1769C10.7439 40.0973 15.9561 42.2563 21.5002 42.2563C32.9451 42.2563 42.2562 32.9452 42.2562 21.5002C42.2562 15.9561 40.0972 10.7439 36.1768 6.82353C32.2566 2.9031 27.0443 0.744141 21.5002 0.744141C15.9561 0.744141 10.7439 2.9031 6.82353 6.82353Z" fill="black"></path><path fill-rule="evenodd" clip-rule="evenodd" d="M1.59961 21.5002C1.59961 10.5096 10.5096 1.59961 21.5002 1.59961C32.4909 1.59961 41.4009 10.5096 41.4009 21.5002C41.4009 32.4909 32.4909 41.401 21.5002 41.401C10.5096 41.401 1.59961 32.4909 1.59961 21.5002ZM10.4743 9.2172C11.0858 8.8381 11.7371 8.96153 12.1585 9.37109C12.8059 10.0004 12.7107 10.7281 12.0948 11.4621L9.39934 14.6743L5.38135 11.3028L7.93735 8.25671C8.46637 7.62625 9.20604 7.12276 9.90887 7.71251L9.94656 7.74402C10.1376 7.90339 10.2337 7.98355 10.4814 8.43518C10.5434 8.60563 10.5911 8.91452 10.4743 9.2172ZM23.5459 4.26623L22.166 7.92367H21.0204L19.6404 4.26623V7.92367H18.5918V2.68555H20.1674L21.5931 6.41656L23.0189 2.68555H24.5946V7.92367H23.5459V4.26623ZM34.2913 12.8983L36.2658 10.1029L35.3963 9.02916L32.2515 10.3793L34.3093 7.68732L33.4988 6.68647L30.2127 10.9135L31.1732 12.09L34.2775 10.8125L34.2887 10.8264L32.3937 13.5973L33.3449 14.7814L38.1627 12.4459L37.3523 11.4451L34.2913 12.8983ZM8.49616 9.01159C8.67403 8.79956 9.07599 8.80828 9.33451 9.02513C9.61873 9.26363 9.61942 9.60177 9.42853 9.82914L7.91064 11.6381L6.96094 10.8411L8.49616 9.01159ZM11.1968 11.1455L9.59647 13.0527L8.59294 12.2106L10.2062 10.288C10.3884 10.0708 10.7946 10.0076 11.0686 10.2376C11.3787 10.4976 11.4094 10.8923 11.1968 11.1455ZM8.78809 21.499C8.78809 28.5196 14.4795 34.2109 21.5 34.2109C28.5205 34.2109 34.2118 28.5196 34.2118 21.499C34.2118 14.4785 28.5204 8.78711 21.5 8.78711C14.4795 8.78711 8.78809 14.4785 8.78809 21.499Z" fill="black"></path><path d="M9.60596 21.4995H21.5V9.60547C14.9312 9.60547 9.60596 14.9308 9.60596 21.4995ZM21.5 21.4995V33.3936C28.0688 33.3936 33.3941 28.0684 33.3941 21.4995H21.5Z" fill="black"></path></g></svg>