<svg xmlns="http://www.w3.org/2000/svg" width="43" height="43" viewBox="0 0 43 43" fill="none"><path opacity="0.5" fill-rule="evenodd" clip-rule="evenodd" d="M10.648 13.2147H15.8164V15.1226L12.4295 15.1273L12.4352 20.2845L15.0934 20.2882L15.1019 22.2206L12.4371 22.215L12.4267 30.4837H10.648V13.2147ZM16.6214 13.1648H18.4011V30.4837H16.6214V13.1648ZM26.4078 30.4328H24.6281L24.6168 22.1999H22.165L22.1264 30.4347L20.5192 30.4328V13.1648H24.7158L26.4078 16.5828V30.4338V30.4328ZM24.6291 19.9018H22.1716V15.0727L23.6959 15.068L24.6291 17.3322V19.9027V19.9018ZM26.8037 13.2147H32.254L32.2352 15.1537L30.4517 15.149L30.4319 30.4328H28.6522L28.573 15.1594L26.8009 15.1481L26.8028 13.2138L26.8037 13.2147ZM21.5005 42.7229C9.62803 42.7229 0 33.157 0 21.3619C0 9.56676 9.62803 0 21.5005 0C33.3729 0 43.0009 9.56582 43.0009 21.3619C43.0009 33.158 33.3729 42.7238 21.5005 42.7238V42.7229ZM3.53769 12.7566C4.02409 9.75435 5.94423 7.54293 9.02569 5.75948C15.7533 1.31968 26.4295 1.25276 34.1129 5.91595C36.887 7.36289 38.4848 9.57336 39.2351 12.438C40.7858 20.5833 39.435 27.6992 36.0038 33.8518C32.2578 42.4259 12.4437 42.5711 7.78802 34.8528C3.84499 29.5091 1.92391 20.6003 3.53769 12.7566ZM32.5726 35.1158C28.1338 39.616 13.391 38.6498 10.6847 35.1158C7.3742 27.8416 6.1846 20.3901 6.59182 12.8056C6.47399 10.285 7.30162 8.58548 9.07377 7.70884C15.2291 4.94504 27.539 4.64152 33.2485 7.59761C35.606 8.50913 36.4685 10.779 36.3724 14.0857C36.5618 22.3837 34.8632 29.2442 32.5726 35.1158Z" fill="black"></path></svg>