<svg xmlns="http://www.w3.org/2000/svg" width="43" height="43" viewBox="0 0 43 43" fill="none"><g opacity="0.5"><path fill-rule="evenodd" clip-rule="evenodd" d="M1.89697 21.4994C1.89697 32.3255 10.6736 41.1023 21.4999 41.1023C32.3264 41.1023 41.1028 32.3255 41.1028 21.4994C41.1028 10.6731 32.3264 1.89648 21.4999 1.89648C10.6736 1.89648 1.89697 10.6731 1.89697 21.4994ZM5.58987 31.0479L21.5053 24.4606L37.4885 30.9459C34.1693 36.597 28.1095 40.0697 21.5731 40.0867C15.0199 40.1206 8.9432 36.6825 5.58987 31.0479ZM21.2846 3.00781L18.7484 19.8082L5.35251 30.6341C2.13525 24.9317 2.16939 17.9529 5.45446 12.2846C8.72258 6.61636 14.7482 3.09281 21.2846 3.00781ZM37.7265 30.5163L24.1775 20.0311L21.7602 3.00915C24.9619 3.05812 28.0964 3.93514 30.8586 5.55486C33.6208 7.17459 35.9166 9.48183 37.5226 12.252C40.8075 17.8862 40.8757 24.8141 37.7265 30.5163Z" fill="black"></path></g></svg>