<svg xmlns="http://www.w3.org/2000/svg" width="44" height="43" viewBox="0 0 44 43" fill="none"><path opacity="0.5" d="M1.87253 15.7961L1.91195 15.6827C1.92427 15.663 1.98339 15.4487 2.2864 15.4241C2.2864 15.4241 2.4416 15.4093 2.61897 15.466C2.61897 15.466 2.5155 15.7271 2.10164 15.7714L1.87253 15.7936V15.7961ZM42.5766 27.6035C42.4706 27.8572 42.0297 28.1824 41.5099 28.3573C40.963 28.5396 39.815 28.547 39.2312 28.3499C39.2312 28.3499 39.1055 28.2169 38.6941 28.0962C37.7334 27.8129 37.4279 27.6158 36.9401 27.165C36.5952 26.8448 36.2183 26.4407 35.8513 26.0638C35.6862 25.8963 35.2921 25.4972 34.5949 25.379C33.8632 25.2509 32.0748 25.1154 31.4195 24.8838C30.9761 24.7237 30.4489 24.4281 29.7887 23.4402C29.4733 22.9697 29.2344 22.8293 28.7811 22.5386C28.7811 22.5386 29.1284 22.817 29.3083 23.1495C29.5743 23.6324 29.7024 23.9847 29.8478 24.2409C29.9931 24.502 30.1606 24.7311 30.4218 24.943C30.747 25.2041 30.9563 25.2632 31.3259 25.3346C31.6757 25.4061 32.8779 25.4603 33.9051 25.4997C34.9176 25.5391 35.3512 25.8495 35.6665 26.118C35.9572 26.3619 36.4203 27.0665 36.748 27.3547C37.1791 27.7365 37.1939 27.7439 37.6989 28.0592C37.9551 28.2194 38.1793 28.3253 38.3862 28.3992C38.8493 28.6727 38.6596 29.1481 38.6596 29.1481C38.5241 29.525 38.0462 29.663 37.4895 29.5841C36.6445 29.5078 35.9153 28.8057 35.3019 28.3007C34.962 28.0223 34.8413 27.8843 34.1934 27.4311C33.203 26.7413 30.8726 26.7979 30.8726 26.7979L29.1679 26.7881C25.8422 26.8374 24.6252 24.162 24.2926 23.6004C24.1769 23.4057 24.0734 23.2481 23.9724 23.12C23.8172 22.9081 22.9821 21.8217 22.0878 21.4325C22.0878 21.4325 22.9451 22.1765 22.8589 22.5829C22.6741 22.5829 22.4623 22.5928 22.2159 22.5977C18.8656 22.6938 18.1709 22.5115 17.6413 22.4031C17.1116 22.2972 16.2223 22.0336 15.3601 21.6394C15.3601 21.6394 15.4537 20.8117 15.1137 20.1269C15.1137 20.1269 17.8777 21.1049 20.0776 20.8265C20.0776 20.8265 16.5278 20.6516 14.3156 18.8877C14.3156 18.8877 14.86 20.755 14.4289 21.5384C14.4289 21.5384 13.8475 22.9599 10.8618 22.0089C10.8618 22.0089 9.4896 21.4744 8.42292 21.4744C8.42292 21.4744 7.62229 21.5089 7.52375 21.9277C7.52375 21.9277 7.47202 22.1272 7.68141 22.2233C7.68141 22.2233 7.91544 22.2873 7.80459 22.4622C7.62475 22.7455 7.37594 22.9672 7.12467 23.0929C6.28709 23.051 6.3536 22.3662 6.3536 22.3662C6.36838 22.1272 6.44721 21.9572 6.51865 21.7922C7.04337 20.6171 8.88113 20.452 8.88113 20.452C10.8347 20.255 12.8867 20.723 12.8867 20.723C11.4185 20.3732 10.9209 20.117 10.4996 19.7672C9.93549 19.2967 9.40585 17.7126 9.40585 17.7126C9.18167 18.4886 9.46004 19.272 9.64973 19.6785C9.37136 19.2326 8.97474 18.8582 8.62246 18.5773C7.71837 17.8531 6.40287 17.6215 6.40287 17.6215C6.02842 17.5574 5.87568 17.1633 5.87568 17.1633C5.38792 16.269 4.84102 16.2272 4.84102 16.2272C5.11447 16.5992 5.08244 17.1066 5.08244 17.1066C5.08244 18.0427 3.88027 18.3507 3.88027 18.3507C2.97864 19.2474 2.82344 19.2277 2.64853 19.24C2.47116 19.2523 2.34059 19.07 2.34059 19.07L2.38247 18.905C2.53275 18.8114 2.67809 18.6906 2.67809 18.6906C3.55755 17.9836 3.67826 17.6215 3.60682 17.1313C3.46394 16.1483 2.6707 16.2222 2.6707 16.2222C2.30118 16.2222 2.11642 16.5055 2.11642 16.5055C1.97354 16.678 1.65575 17.2126 1.65575 17.2126C1.37984 17.6683 1.13349 17.6042 1.13349 17.6042C0.825556 17.6215 0.606306 17.3505 0.606306 17.3505L0.576744 17.3209C0.350105 17.0771 0.542256 16.7839 0.542256 16.7839C0.914241 16.1237 1.55967 16.0596 1.64589 16.0572L2.03266 16.0276C2.75939 15.9759 3.22991 15.2812 3.22991 15.2812C2.92444 15.1334 2.37755 15.2122 2.37755 15.2122C1.8479 15.2442 1.70502 15.8108 1.70502 15.8108C1.24435 15.8774 1.26652 15.5251 1.36506 15.4339C1.44389 15.3403 1.71733 14.8969 3.48365 14.6308C3.48365 14.6308 4.41977 14.4461 6.08262 14.6308L6.1245 14.7836C5.9151 15.0324 5.26228 15.5743 4.21284 15.3108C4.21284 15.3108 4.19313 15.7295 5.33618 15.9389C5.33618 15.9389 6.36592 16.1557 8.04847 17.5106C8.04847 17.5106 7.23552 16.0005 5.82149 15.5423L5.8141 15.3773C5.8141 15.3773 6.4817 14.7786 7.65924 14.8402C7.65924 14.8402 11.5589 15.0398 13.749 17.3283C13.749 17.3283 13.6751 16.944 13.3376 16.3947L13.3055 16.2789C13.3055 16.2789 13.3376 16.1853 13.7194 16.2592C13.7194 16.2592 15.1088 16.4858 18.3409 17.6683C18.3409 17.6683 20.76 18.5182 22.0804 19.0651C24.066 19.8879 29.0373 21.9079 32.1807 23.6447C32.7399 23.9551 35.0777 25.108 35.0777 25.108C36.8243 26.1919 38.4281 26.9753 38.4281 26.9753C40.0096 27.707 41.1625 27.3719 41.1625 27.3719C41.5296 27.234 42.2292 26.8497 42.5027 27.1231C42.6431 27.2611 42.6505 27.4409 42.5716 27.6134L42.5766 27.6035ZM42.9707 26.9901C42.7638 26.5097 42.0987 26.628 42.0987 26.628C41.7932 26.6477 41.4113 26.9655 40.8743 27.0739C39.7288 27.3104 38.8493 26.9211 38.8493 26.9211C37.1545 26.1624 36.0089 25.3396 35.265 24.9109C34.521 24.4847 31.7644 23.0387 29.0028 21.6517C29.0028 21.6517 25.8422 20.0332 21.1665 18.0994C21.1616 18.0969 12.1428 14.0002 5.64904 14.0002C5.64904 14.0002 2.2864 13.9558 1.15073 15.2516C1.15073 15.2516 0.94873 15.4191 1.04973 15.6212L1.01771 15.7172C1.01771 15.7172 0.517621 16.0449 0.111147 16.5179C0.111147 16.5179 -0.108102 16.742 0.0692681 17.0771C0.0692681 17.0771 0.286054 17.454 0.421545 17.6166C0.561964 17.7792 0.837873 18.06 1.26159 18.0206C1.44635 18.0009 1.45128 17.9565 1.45128 17.9565C1.64836 18.1511 1.98339 18.1635 1.98339 18.1635C1.95136 18.0427 1.82326 17.8063 1.81095 17.6658C1.79617 17.5106 1.85775 17.3678 1.85775 17.3678C1.92919 17.1953 2.06468 16.9835 2.19771 16.8775C2.31842 16.7839 2.61404 16.6854 2.83575 16.8406C3.01312 16.9662 3.20281 17.3678 2.98849 17.8925C2.98849 17.8925 2.74953 18.3063 2.52782 18.3531H2.46377C2.33813 18.3531 2.05237 18.1955 2.05237 18.1955C2.05237 18.1955 2.04251 18.23 2.07454 18.3729L2.14352 18.6143L2.07947 18.6611C2.07947 18.6611 1.9021 18.8064 1.98093 19.0134C1.98093 19.0134 2.1583 19.6662 2.64114 19.6662C3.06978 19.681 3.42699 19.272 3.42699 19.272C4.35079 18.2792 5.64658 18.1462 5.64658 18.1462C7.08525 18.0501 9.14225 19.5208 9.70393 19.947C7.57056 19.9224 6.71327 20.7403 6.71327 20.7403C5.51355 21.6739 5.98161 22.7997 5.98161 22.7997C6.06784 23.0461 6.31172 23.2284 6.46938 23.2924C6.69849 23.3934 6.88325 23.3983 7.06062 23.3762C7.18625 23.3639 7.32421 23.3171 7.39319 23.2678C7.55578 23.1717 7.84893 22.9796 7.99181 22.7776C8.08542 22.6741 8.17904 22.4277 8.11498 22.1888C8.11498 22.1888 8.07803 21.9991 8.24801 21.9621C8.24801 21.9621 8.81461 21.8168 9.95274 22.3218C9.95274 22.3218 11.1919 23.0436 12.7981 23.189C12.7981 23.189 14.626 23.3713 15.0694 22.3834C15.0694 22.3834 16.1164 22.8145 17.6585 22.9894C17.6585 22.9894 19.1514 23.1446 21.5828 22.9623C22.0607 22.9254 22.6224 22.9672 22.6224 22.9672C23.3959 23.0584 23.8936 23.4624 24.0882 23.7802C24.8839 25.0711 25.8323 27.606 29.7197 27.505L31.4811 27.4582C32.5527 27.4582 33.4198 27.4656 34.2771 27.9213C34.6491 28.1208 35.637 29.0988 36.2454 29.4314C38.0413 30.6434 39.0809 30.0793 39.0809 30.0793C39.6968 29.7196 39.645 29.0865 39.4997 28.7318C39.3149 28.6751 41.7291 29.0841 42.7564 27.7341C42.9978 27.4311 43.0446 27.1552 42.9707 26.9827V26.9901Z" fill="#1D1D1B"></path></svg>