<svg xmlns="http://www.w3.org/2000/svg" width="43" height="43" viewBox="0 0 43 43" fill="none"><g clip-path="url(#clip0_915_8435)"><path d="M37.6528 28.0883C37.512 27.9476 36.7618 27.2912 36.7618 27.2912L21.8502 15.709C24.4294 18.2412 28.2274 22.3678 29.3997 26.0254C29.7279 27.0102 29.8687 27.9479 29.8687 28.7919C29.8687 29.5422 29.681 30.3862 29.3997 31.2303C28.7903 32.7777 27.5241 34.5597 25.6013 36.5761C24.945 37.2794 22.0845 40.0929 21.1466 41.0308C20.9589 41.2185 20.8184 41.4998 20.7715 41.828V42.6721L37.512 29.636C37.6997 29.4952 38.0748 29.214 38.0748 28.745C38.0279 28.4638 37.7467 28.1822 37.6528 28.0886V28.0883Z" fill="black" fill-opacity="0.5"></path><path d="M29.3064 17.0217C28.9782 16.0369 28.8375 15.0992 28.8375 14.2552C28.8375 13.5049 29.0252 12.6609 29.3064 11.8168C29.9159 10.2694 31.182 8.48738 33.1048 6.47103C33.7142 5.81465 36.2465 3.28241 37.5595 2.01629C37.7939 1.78196 37.8877 1.54732 37.9816 1.21913C38.0285 0.937876 38.0285 0.703238 38.0285 0.60969V0.328125L21.241 13.3642C21.1472 13.458 20.8659 13.6923 20.7251 13.9736C20.6782 14.0675 20.6782 14.3018 20.7251 14.4895C20.819 14.7238 20.9595 14.8646 21.0533 14.9585C21.1941 15.0523 21.8974 15.6618 21.8974 15.6618L36.809 27.244C34.1829 24.7117 30.4787 20.5852 29.3064 17.0214V17.0217Z" fill="black" fill-opacity="0.5"></path><path d="M28.4623 16.7867C28.1811 15.9426 27.9933 15.0516 27.9933 14.2075C27.9933 13.4104 28.2277 12.6601 28.5092 11.863C29.8692 8.53359 36.2934 2.85966 37.6064 1.78125C36.528 2.62533 31.7917 6.65803 30.5725 7.92415C28.5562 9.89357 27.0088 12.0976 27.0088 14.2545C27.0088 16.599 28.65 18.9905 30.5256 21.1945C31.6979 22.6014 32.8232 23.8206 33.9488 24.8052C35.1211 25.8836 35.9183 26.5872 36.7623 27.2436C35.8244 26.3526 30.01 21.1945 28.4623 16.7867Z" fill="black" fill-opacity="0.5"></path><path d="M29.3061 17.0213C28.9779 16.0364 28.8371 15.0988 28.8371 14.2547C28.8371 13.5045 29.0249 12.6604 29.3061 11.8163C29.9156 10.2689 31.1817 8.48692 33.1045 6.47057C33.7139 5.8142 36.2462 3.28196 37.5592 2.01583C37.6061 1.96891 37.6531 1.92198 37.7 1.82812C36.3869 2.85961 29.9628 8.58047 28.6028 11.9099C28.2746 12.707 28.0869 13.4572 28.0869 14.2544C28.0869 15.0985 28.2277 15.9895 28.5559 16.8336C30.1033 21.2414 35.8241 26.3525 36.809 27.2904C34.1363 24.6643 30.4787 20.585 29.3064 17.021L29.3061 17.0213Z" fill="black" fill-opacity="0.5"></path><path d="M30.1974 26.2128C28.65 21.805 22.7884 16.5531 21.8507 15.709C24.4299 18.2412 28.228 22.3678 29.4002 26.0254C29.7284 27.0102 29.8692 27.9479 29.8692 28.7919C29.8692 29.5422 29.6815 30.3863 29.4002 31.2303C28.7908 32.7777 27.5247 34.5597 25.6019 36.5761C24.9455 37.2794 22.0851 40.0929 21.1471 41.0308C21.1002 41.0777 21.0533 41.1247 21.0063 41.2185C22.3194 40.1401 28.6966 34.4662 30.1035 31.1368C30.4317 30.3396 30.6194 29.5894 30.6194 28.7922C30.6664 27.9482 30.5256 27.1041 30.1974 26.2131V26.2128Z" fill="black" fill-opacity="0.5"></path><path d="M28.1809 21.851C27.0086 20.4441 25.8833 19.2249 24.7576 18.2404C23.5854 17.162 22.6944 16.3648 21.8503 15.7081C22.8351 16.5522 28.6965 21.851 30.1969 26.2119C30.4782 27.056 30.6659 27.947 30.6659 28.7911C30.6659 29.5883 30.4316 30.3385 30.15 31.1356C28.7431 34.465 22.3659 40.139 21.0062 41.2174V41.2643C22.1315 40.4202 26.8678 36.3875 28.087 35.1214C30.1034 33.152 31.6508 30.9479 31.6508 28.7911C31.6508 26.4466 30.0095 24.0551 28.1809 21.851ZM14.3946 14.2077C14.3946 16.5522 12.8003 18.8968 10.6901 21.0539C9.33014 22.4139 7.97047 23.6331 6.70435 24.6176C5.3913 25.696 4.35981 26.3996 3.42188 27.056C4.50029 26.2119 11.1122 21.1008 12.8472 16.7396C13.1754 15.8955 13.3631 15.0515 13.3631 14.2074C13.3631 13.3633 13.1754 12.5192 12.8472 11.6751C11.1122 7.31457 4.50029 2.20346 3.42188 1.35938C4.35981 2.01575 5.3913 2.71935 6.70435 3.79776C7.97047 4.78263 9.33045 6.00182 10.6901 7.36149C12.8003 9.51863 14.3946 11.9101 14.3946 14.2077Z" fill="black" fill-opacity="0.5"></path><path d="M3.42188 27.056C4.50029 26.2119 11.1122 21.1008 12.8472 16.7396C13.1754 15.8955 13.3631 15.0515 13.3631 14.2074C13.3631 13.3633 13.1754 12.5192 12.8472 11.6751C11.1122 7.31457 4.50029 2.20346 3.42188 1.35938C4.40674 2.20346 10.5493 7.31457 12.1436 11.6758C12.4718 12.5198 12.6595 13.3639 12.6595 14.208C12.6595 15.0521 12.4718 15.8962 12.1436 16.7402C10.5024 21.1008 4.40674 26.2119 3.42188 27.056Z" fill="black" fill-opacity="0.5"></path><path d="M37.7469 27.9946C36.5277 26.8223 30.9476 21.5235 29.4472 16.9749C29.119 16.0369 28.9782 15.1462 28.9782 14.2552C28.9782 13.4581 29.1659 12.7078 29.4472 11.9107C30.1505 10.1287 31.6512 8.20618 33.1986 6.61187C33.855 5.90857 36.7154 3.09507 37.6533 2.1102C37.8877 1.87587 38.0285 1.59431 38.0754 1.31305C38.1223 1.03179 38.1692 0.750226 38.1692 0.562823V0.0469275L21.1471 13.2234C20.9594 13.3642 20.6782 13.5985 20.5843 13.9737C20.4905 13.6455 20.2092 13.3642 20.0215 13.2234L3 0V28.4635L20.0218 15.2398C20.2095 15.099 20.4908 14.8647 20.5846 14.4896C20.6785 14.7708 20.8659 15.0055 20.9597 15.0524C22.1789 16.2246 27.8059 21.5235 29.3064 26.0721C29.6346 27.01 29.7754 27.9007 29.7754 28.7917C29.7754 29.5889 29.5876 30.3391 29.3064 31.1362C28.6031 32.9183 27.1023 34.8408 25.555 36.4351C24.8986 37.1384 22.0381 39.9988 21.1002 40.9367C20.9125 41.1244 20.7251 41.4526 20.6782 41.7339C20.6312 41.9682 20.5843 42.2028 20.5843 42.4841V43L37.6061 29.7766C37.8404 29.5889 38.2156 29.2607 38.2156 28.7917C38.1686 28.3697 37.8404 28.0884 37.7466 27.9946H37.7469ZM19.9279 15.0993L3.14078 28.1353V0.328186L19.881 13.3642C20.0687 13.505 20.4438 13.8332 20.4438 14.2552C20.4438 14.6303 20.1157 14.9585 19.9279 15.0993ZM20.7251 14.4899C20.6782 14.3022 20.6782 14.1147 20.7251 13.974C20.819 13.6927 21.1002 13.4581 21.241 13.3645L37.9815 0.328186V0.562517C37.9815 0.656371 37.9815 0.890702 37.9346 1.17196C37.8877 1.50015 37.7469 1.7814 37.5126 1.96911C36.2464 3.23524 33.6676 5.76748 33.0578 6.42385C31.1353 8.4402 29.8692 10.2222 29.2595 11.7696C28.9313 12.6137 28.7905 13.4108 28.7905 14.208C28.7905 15.099 28.9782 16.0366 29.2595 16.9746C30.4317 20.5852 34.1362 24.6648 36.7154 27.1971L21.8977 15.6615C21.8977 15.6615 21.1944 15.0521 21.0536 14.9582C20.9597 14.8644 20.8193 14.677 20.7254 14.4892L20.7251 14.4899ZM37.4656 29.6827L20.7251 42.7187V42.4844C20.7251 42.2501 20.772 42.0624 20.772 41.875C20.819 41.5468 20.9597 41.2655 21.1941 41.0778L25.6488 36.6231C27.5713 34.6067 28.8374 32.8247 29.4472 31.2773C29.7754 30.4332 29.9161 29.6361 29.9161 28.8389C29.9161 27.9479 29.7284 27.0103 29.4472 26.0724C28.228 22.4148 24.4765 18.2882 21.8977 15.756L36.8562 27.3851C36.8562 27.3851 37.6064 28.0415 37.7472 28.1823C37.8411 28.2761 38.1223 28.5574 38.1223 28.8856C38.0285 29.2137 37.6533 29.5419 37.4659 29.6827H37.4656Z" fill="black" fill-opacity="0.5"></path><path d="M31.5103 22.7434C31.5572 22.6965 29.8221 21.0083 29.5878 20.8209C27.6653 19.0389 26.1179 16.2723 26.1179 16.2723C25.5551 15.147 25.3677 14.678 24.2893 14.5841C23.1639 14.4903 22.4137 14.4434 21.757 14.4434C21.4758 14.4434 21.3819 14.4903 21.335 14.6311C21.288 14.7249 21.3819 14.8654 21.6162 15.0062C23.3513 16.2254 25.9302 18.2887 29.4473 21.1022C29.6816 21.2429 31.4636 22.7903 31.5106 22.7434H31.5103Z" fill="black" fill-opacity="0.5"></path><path d="M3.14062 27.2912L3.42188 27.1035C4.35982 26.4471 5.3913 25.7435 6.70435 24.6651C7.97048 23.6802 9.33045 22.461 10.6901 21.1014C12.8003 18.9442 14.3946 16.5997 14.3946 14.2552C14.3946 11.9106 12.8003 9.56609 10.6901 7.40896C9.33015 6.04899 7.97048 4.82979 6.70435 3.84523C5.3913 2.76651 4.35982 2.06322 3.42188 1.40684L3.14062 1.21913V0.328125L19.8809 13.3642C20.0686 13.5049 20.4437 13.8331 20.4437 14.2552C20.4437 14.6772 20.1155 14.9585 19.8809 15.1462L3.14062 28.1353V27.2912Z" fill="black" fill-opacity="0.5"></path><path d="M9.42383 22.7434C9.42383 22.7434 9.84587 22.3214 10.8307 21.4303C11.0651 21.2426 11.2997 21.0083 11.4871 20.8209C13.4096 19.0389 14.957 16.2723 14.957 16.2723C15.5198 15.147 15.7072 14.678 16.7856 14.5841C17.911 14.4903 18.6612 14.4434 19.3179 14.4434C19.5991 14.4434 19.693 14.4903 19.7399 14.6311C19.7868 14.7249 19.693 14.8654 19.4586 15.0062C17.7236 16.2254 15.1916 18.3356 11.6276 21.1022C11.3932 21.2899 11.1586 21.4773 10.9243 21.6181C9.98634 22.3214 9.47076 22.7903 9.42383 22.7434Z" fill="black" fill-opacity="0.5"></path></g><defs><clipPath id="clip0_915_8435"><rect width="35.2159" height="43" fill="white" transform="translate(3)"></rect></clipPath></defs></svg>