<svg xmlns="http://www.w3.org/2000/svg" width="43" height="43" viewBox="0 0 43 43" fill="none"><path opacity="0.5" fill-rule="evenodd" clip-rule="evenodd" d="M35.4814 14C33.7198 14 32.1026 14.6043 30.8205 15.6197C29.5385 14.6043 27.9213 14 26.1597 14C24.3981 14 22.7808 14.6043 21.4988 15.6197C20.2167 14.6043 18.5995 14 16.8379 14C15.0763 14 13.4591 14.6043 12.177 15.6197C10.895 14.6043 9.27772 14 7.51613 14C3.36415 14 0 17.3642 0 21.5161C0 25.6681 3.36415 29.0323 7.51613 29.0323C9.27772 29.0323 10.895 28.4279 12.177 27.4126C13.4591 28.4255 15.0763 29.0323 16.8379 29.0323C18.5995 29.0323 20.2167 28.4279 21.4988 27.4126C22.7808 28.4255 24.3981 29.0323 26.1597 29.0323C27.9213 29.0323 29.5385 28.4279 30.8205 27.4126C32.1026 28.4279 33.7198 29.0323 35.4814 29.0323C39.6334 29.0323 42.9976 25.6681 42.9976 21.5161C42.9976 17.3642 39.6358 14 35.4814 14ZM10.9488 26.1868C9.99215 26.8865 8.79329 27.3123 7.51858 27.3123C4.3159 27.3123 1.72245 24.7213 1.72245 21.5161C1.72245 18.311 4.31346 15.7224 7.51613 15.7224C8.79329 15.7224 9.98726 16.1482 10.9463 16.8479C9.92609 18.13 9.31932 19.7521 9.31932 21.5186C9.31932 23.2851 9.93343 24.9072 10.9463 26.1892L10.9488 26.1868ZM12.1795 24.961C11.465 23.997 11.0467 22.808 11.0467 21.5186C11.0467 20.2292 11.465 19.0401 12.1795 18.0761C12.8939 19.0401 13.3147 20.2267 13.3147 21.5186C13.3147 22.8104 12.8939 23.997 12.1795 24.961ZM20.2706 26.1868C19.309 26.8939 18.1199 27.3098 16.8354 27.3098C15.551 27.3098 14.3692 26.8939 13.4077 26.1868C14.4206 24.9072 15.0347 23.2753 15.0347 21.5161C15.0347 19.757 14.4279 18.13 13.4077 16.8455C14.3692 16.1384 15.5485 15.7224 16.8354 15.7224C18.1224 15.7224 19.309 16.1384 20.2706 16.8455C19.2503 18.1275 18.6435 19.7496 18.6435 21.5161C18.6435 23.2826 19.2576 24.9048 20.2706 26.1868ZM21.5012 24.961C20.7868 23.997 20.3684 22.808 20.3684 21.5186C20.3684 20.2292 20.7868 19.0401 21.5012 18.0761C22.2156 19.0401 22.6365 20.2267 22.6365 21.5186C22.6365 22.8104 22.2156 23.997 21.5012 24.961ZM29.5923 26.1868C28.6308 26.8939 27.4417 27.3098 26.1572 27.3098C24.8727 27.3098 23.691 26.8939 22.7294 26.1868C23.7424 24.9072 24.3565 23.2753 24.3565 21.5161C24.3565 19.757 23.7497 18.13 22.7294 16.8455C23.691 16.1384 24.8703 15.7224 26.1572 15.7224C27.4442 15.7224 28.6308 16.1384 29.5923 16.8455C28.5721 18.1275 27.9653 19.7496 27.9653 21.5161C27.9653 23.2826 28.5794 24.9048 29.5923 26.1868ZM30.823 24.961C30.1086 23.997 29.6877 22.808 29.6877 21.5186C29.6877 20.2292 30.1061 19.0401 30.823 18.0761C31.5374 19.0401 31.9558 20.2267 31.9558 21.5186C31.9558 22.8104 31.535 23.997 30.823 24.961ZM35.4839 27.3123C34.2067 27.3123 33.0103 26.8865 32.0537 26.1868C33.0666 24.9072 33.6807 23.2753 33.6807 21.5161C33.6807 19.757 33.0739 18.13 32.0537 16.8455C33.0127 16.1457 34.2092 15.72 35.4839 15.72C38.6865 15.72 41.28 18.311 41.28 21.5161C41.28 24.7213 38.689 27.3123 35.4839 27.3123Z" fill="#1D1D1B"></path></svg>