<svg xmlns="http://www.w3.org/2000/svg" width="44" height="43" viewBox="0 0 44 43" fill="none"><path opacity="0.5" fill-rule="evenodd" clip-rule="evenodd" d="M21.5021 11C9.6261 11 0 15.7513 0 21.6147C0 27.4781 9.6261 32.2294 21.5021 32.2294C33.3782 32.2294 43.0043 27.4781 43.0043 21.6147C43.0043 15.7513 33.3739 11 21.5021 11ZM19.461 13.3607C21.9155 12.4914 29.2064 13.3607 32.0359 14.72C32.9435 15.5893 27.992 18.3804 22.103 19.5949C13.6785 21.2951 17.6841 14.7967 19.4567 13.3607H19.461ZM4.99415 25.9398C3.14478 24.6189 -0.481518 20.8434 5.52254 16.9146C8.69715 15.0652 10.4698 14.6476 12.6601 14.1959C13.7169 13.9701 14.4754 14.2343 13.5294 15.0269C11.5266 17.1063 7.37191 23.9754 6.99693 25.4882C6.69438 26.5109 6.08929 26.7708 4.99415 25.9398ZM22.2905 30.3204C18.7409 30.6954 10.8491 29.5278 10.6957 28.5094C10.8491 26.0506 23.2364 21.9726 25.4608 24.2396C26.4068 26.0165 24.5915 30.2053 22.2862 30.3204H22.2905ZM40.3453 23.1786C39.4376 25.2581 36.3781 27.5975 29.9607 29.1869C28.9763 29.4127 28.6397 28.8076 29.2789 28.2409C30.3356 27.5975 35.4363 19.0622 36.0798 17.362C36.459 16.4927 37.1749 16.8336 37.6266 17.1745C39.6677 18.4955 41.2145 20.6474 40.3453 23.1786Z" fill="black"></path></svg>