<svg xmlns="http://www.w3.org/2000/svg" width="44" height="44" viewBox="0 0 44 44" fill="none"><g opacity="0.5"><path fill-rule="evenodd" clip-rule="evenodd" d="M20.134 33.6495C15.2563 32.8262 11.0192 29.4419 9.26343 24.9643C8.58684 23.2394 8.32571 21.9839 8.26526 20.1535C8.21509 18.6511 8.31928 17.5848 8.63572 16.3229C10.0159 10.8419 14.2492 6.7862 19.689 5.73786C20.8968 5.50504 20.9817 5.51147 21.1283 5.86392C21.4589 6.65371 21.7599 8.28989 22.0622 10.9294C22.1895 11.1699 22.0288 12.9939 22.5574 12.7714C22.6578 12.7084 22.7092 12.5218 22.7529 12.0639C23.072 8.77226 23.5852 6.04271 23.9582 5.65811C24.0547 5.55778 24.1717 5.56035 24.8779 5.67483C27.7798 6.14305 30.4258 7.51682 32.5765 9.67139C33.7033 10.8008 34.4159 11.7616 35.0925 13.0647C36.3171 15.425 36.8239 17.6272 36.7274 20.1638C36.6785 21.454 36.5602 22.2412 36.2347 23.4349C34.8713 28.4399 30.7306 32.3657 25.6407 33.4784C25.1455 33.5864 24.5718 33.6983 24.3647 33.7266L23.9891 33.7781L23.863 33.4784C23.4874 32.5818 23.0089 29.9397 22.8108 27.6656C22.762 27.1022 22.7041 26.5799 22.6822 26.504C22.6423 26.3638 22.3799 26.3136 22.3066 26.432C22.2847 26.468 22.1754 27.3015 22.0648 28.2843C21.7316 31.2299 21.2776 33.5144 20.9894 33.6983C20.8621 33.7781 20.8865 33.7807 20.134 33.6533V33.6495ZM24.2116 35.651C27.0749 35.3397 29.8302 34.2643 32.1237 32.5638C32.9109 31.9798 34.3104 30.6305 34.96 29.8278C36.6039 27.7968 37.7423 25.3901 38.2967 22.7802C38.5012 21.818 38.5141 21.6366 38.5167 19.7483C38.5179 17.9989 38.4974 17.6246 38.3456 16.8348C37.4336 12.0794 34.5806 8.09438 30.3589 5.6774C28.8784 4.82972 26.9708 4.15699 25.1339 3.83412C23.9081 3.61931 21.5001 3.57686 20.3308 3.74923C16.3484 4.33835 12.8342 6.23437 10.3118 9.15687C6.70883 13.3296 5.4997 18.8492 7.02397 24.1578C8.26269 28.4721 11.4412 32.2127 15.5278 34.1691C17.0096 34.8779 19.0522 35.4632 20.6859 35.6471C21.5515 35.7449 23.3356 35.7461 24.2129 35.651H24.2116Z" fill="#1D1D1B"></path><path fill-rule="evenodd" clip-rule="evenodd" d="M31.729 20.5169C31.7495 20.4192 31.882 19.7644 32.0248 19.0608C32.1676 18.3572 32.3091 17.7809 32.34 17.7809C32.3708 17.7809 32.5136 18.3919 32.6551 19.1393C32.7966 19.8866 32.9291 20.5414 32.9497 20.5954C32.9767 20.6687 32.8236 20.6944 32.3387 20.6944C31.7084 20.6944 31.6917 20.6893 31.729 20.5169ZM35.2509 23.7301C35.4271 23.5179 35.3152 23.3352 34.9808 23.2928L34.6695 23.2529L33.7819 19.1586C33.2944 16.9063 32.8944 15.0553 32.8931 15.045C32.8931 15.0334 32.7863 15.0257 32.659 15.0257C32.3837 15.0257 32.4364 14.8662 31.9129 17.3089C31.7122 18.2402 31.3469 19.9407 31.0987 21.0893L30.6485 23.1757L30.2742 23.2002L29.8986 23.2233L29.9191 19.4982L29.9397 15.773L30.215 15.7331C30.4607 15.6984 30.4903 15.6675 30.4903 15.4579V15.2212H28.0488V15.4579C28.0488 15.6675 28.0797 15.6984 28.3241 15.7331L28.5994 15.773V23.1757L28.3241 23.2143C28.0797 23.249 28.0463 23.2838 28.0244 23.5114L27.9987 23.7687L29.8741 23.7481L31.7495 23.7276L31.774 23.5102C31.7959 23.3224 31.7663 23.2863 31.5579 23.2439C31.4254 23.2169 31.3186 23.1732 31.3199 23.1461C31.3225 23.1191 31.4035 22.7062 31.5013 22.2303L31.6775 21.3646L32.322 21.3414C32.9381 21.3196 32.9677 21.326 33.005 21.4984C33.1465 22.1634 33.2854 22.939 33.2854 23.0651C33.2854 23.1706 33.2288 23.2143 33.0912 23.2143C32.9805 23.2143 32.8622 23.2786 32.8159 23.3661C32.7104 23.5629 32.7117 23.5732 32.8583 23.7198C33.0333 23.8948 35.1081 23.9025 35.2509 23.7288V23.7301ZM26.3805 23.8382C27.0558 23.6504 27.5716 22.9262 27.8186 21.8148C27.9691 21.1382 27.9382 21.0083 27.6218 21.0083C27.3362 21.0083 27.3324 21.0134 27.1407 21.7659C26.931 22.5866 26.6699 23.0188 26.3123 23.1358C25.7914 23.3082 25.3257 23.0767 25.071 22.5171C24.9167 22.1775 24.9012 21.991 24.8755 20.1027C24.8356 17.2021 25.0093 16.1396 25.565 15.8515C26.2969 15.4733 26.9169 16.002 27.1369 17.1892C27.2333 17.7076 27.2964 17.8067 27.5086 17.7655C27.6411 17.7398 27.6591 17.624 27.7003 16.5178C27.7247 15.8463 27.7298 15.2534 27.7105 15.1993C27.6501 15.0231 27.3028 15.0861 27.2102 15.2894L27.124 15.4772L26.7432 15.2405C26.3985 15.027 26.3123 15.0064 25.848 15.036C25.4376 15.0617 25.2678 15.1157 25.0041 15.3009C24.0819 15.9518 23.44 17.6459 23.44 19.4236C23.44 21.4791 24.2504 23.3211 25.3695 23.8099C25.6602 23.9372 25.983 23.9449 26.3792 23.8343L26.3805 23.8382ZM15.0931 20.6353C15.0893 20.4462 15.681 17.7809 15.726 17.7809C15.789 17.7809 16.3409 20.5465 16.2958 20.6353C16.2791 20.6674 16.0026 20.6944 15.6797 20.6944C15.3568 20.6944 15.0931 20.6674 15.0931 20.6353ZM22.7132 19.8133L22.7338 15.7434L23.0284 15.719C23.2959 15.6971 23.3255 15.6714 23.3474 15.4437L23.3718 15.1929L22.5499 15.1685C21.4732 15.1363 21.4591 15.1402 21.4887 15.445C21.5092 15.6637 21.5466 15.6984 21.7884 15.7331L22.0636 15.773L22.0842 17.6099C22.0958 18.6196 22.0765 19.4274 22.0405 19.4056C22.0045 19.3837 21.5903 18.4228 21.1221 17.2716L20.268 15.1775L19.2363 15.1993L18.2047 15.2212V15.4579C18.2047 15.674 18.2292 15.6958 18.5006 15.7177L18.7964 15.7421L18.7758 19.4583L18.7553 23.1744H18.0465L17.231 19.394C16.2431 14.816 16.301 15.0501 16.1505 14.9922C15.8238 14.8675 15.7787 15.0012 15.0674 18.2646C14.3497 21.5563 14.1464 22.2084 13.6924 22.6882C13.3721 23.0278 12.9489 23.213 12.4987 23.213H12.1012L12.1218 19.4917L12.1424 15.7704L12.4176 15.7306C12.662 15.6958 12.6929 15.665 12.6929 15.4553V15.2186H10.2515L10.2258 15.4463C10.1962 15.7048 10.3094 15.8065 10.6258 15.8078H10.8432V23.2105H10.6528C10.3287 23.2105 10.2129 23.2941 10.2129 23.5295C10.2129 23.6517 10.2399 23.7687 10.2721 23.788C10.3042 23.8073 11.2857 23.8009 12.4536 23.7726L14.576 23.7224L14.8166 22.5416L15.0571 21.3607L15.7041 21.3376C16.3241 21.3157 16.3537 21.3222 16.3897 21.4945C16.53 22.1505 16.6714 22.9339 16.6714 23.0561C16.6714 23.1616 16.602 23.2066 16.4155 23.2246C16.1891 23.2465 16.1595 23.2773 16.1595 23.4857V23.7224L18.0491 23.743C19.6891 23.761 19.9515 23.7481 20.0287 23.6414C20.1908 23.4201 20.0686 23.2207 19.7534 23.195L19.4666 23.1706L19.446 20.2622C19.4344 18.6621 19.4537 17.3256 19.4885 17.2909C19.5232 17.2561 20.0956 18.5823 20.7619 20.2391C22.4019 24.3205 22.2219 23.9346 22.4791 23.9051L22.6965 23.8806L22.7171 19.8095L22.7132 19.8133Z" fill="#1D1D1B"></path><path d="M22.4697 43.2594L22.1314 43.1244C6.88603 37.0324 0.0107115 25.6975 1.11436 8.47123L1.14009 8.06605L1.45909 7.81393C8.10288 2.5748 15.0682 -0.0557034 22.1609 0.000894165C29.0337 0.0549191 36.1946 2.63397 43.4429 7.66729L43.7966 7.91298L43.8314 8.3426C44.5144 16.7435 43.1098 23.9275 39.6573 29.694C36.1637 35.5287 30.4949 40.0475 22.808 43.1244L22.4697 43.2594ZM2.90876 8.99476C2.46885 16.6972 3.65611 22.9679 6.53229 28.1518C9.7352 33.9234 14.9499 38.2261 22.4697 41.2952C29.6048 38.374 34.8607 34.1575 38.0932 28.7576C41.2883 23.4207 42.6184 16.7486 42.0486 8.92016C35.2285 4.26243 28.5359 1.87505 22.1468 1.82488C22.0786 1.82488 22.0104 1.82488 21.9423 1.82488C15.4567 1.82488 9.05603 4.23542 2.90876 8.99476Z" fill="#080405"></path></g></svg>