<svg xmlns="http://www.w3.org/2000/svg" width="43" height="43" viewBox="0 0 43 43" fill="none"><g opacity="0.5"><path d="M24.8707 21.5202L22.9963 25.2012H22.9573L22.8625 21.5202H21.2946L21.2334 21.6527L21.3679 21.7347C21.4976 21.8261 21.534 21.9189 21.5508 22.1744L21.7632 26.6413H23.5099L26.329 21.5202H24.8707ZM19.2911 24.1712C19.1156 24.6748 18.9778 24.9988 18.774 25.2126C18.614 25.3807 18.4029 25.5011 17.9168 25.5011C17.5356 25.5011 17.3232 25.3451 17.3232 25.0499C17.3205 24.8597 17.3722 24.5706 17.576 24.0078C17.7521 23.5049 17.8899 23.1809 18.0943 22.9671C18.2523 22.799 18.4641 22.678 18.9509 22.678C19.3321 22.678 19.5439 22.8339 19.5432 23.1277C19.5472 23.3207 19.4955 23.6098 19.2911 24.1712ZM19.2097 21.457H19.047C18.0822 21.457 17.5309 21.7172 17.0784 22.1979C16.5157 22.7929 15.9873 24.4018 15.9973 25.253C16.0081 26.1209 16.5695 26.7227 17.7494 26.7227H17.9222C18.8897 26.7227 19.441 26.4625 19.8935 25.9818C20.4555 25.3854 20.9732 23.7772 20.9631 22.9267C20.9517 22.0594 20.3903 21.457 19.2097 21.457ZM14.4725 23.3792C14.3844 23.5977 14.2876 23.6501 14.1605 23.7019C14.0752 23.7355 13.8943 23.7476 13.7202 23.7476H13.0458L13.4129 22.6894H14.2278C14.4718 22.6894 14.5713 22.8165 14.5747 22.961C14.576 23.0531 14.5337 23.2219 14.4725 23.3792ZM14.3515 21.5202H12.1402L12.0958 21.6527L12.1852 21.7407C12.2794 21.8335 12.276 21.9438 12.1933 22.1804L10.6483 26.6413H12.0602L12.6639 24.8704L13.142 24.8711L13.6731 26.6413H15.0917L14.4248 24.8294C14.812 24.7669 15.0063 24.6559 15.2006 24.4832C15.4669 24.2398 15.6511 23.8982 15.8037 23.3953C16.0269 22.6659 15.8918 22.249 15.7486 22.0352C15.5516 21.7407 15.1368 21.5202 14.3515 21.5202ZM29.1642 24.5874L29.5555 23.5164H27.7557L28.0347 22.6988H29.9844L30.4127 21.5169H26.7317L26.6806 21.6675L26.7687 21.7542C26.8635 21.8463 26.8595 21.9559 26.7774 22.1939L25.2445 26.6393H28.6841L29.0996 25.4493H27.0921L27.3879 24.5874H29.1642ZM33.2943 23.3792C33.2062 23.5977 33.1081 23.6501 32.983 23.7019C32.8956 23.7355 32.7174 23.7476 32.5433 23.7476H31.8696L32.2334 22.6894H33.0496C33.2923 22.6894 33.3931 22.8165 33.3951 22.961C33.3978 23.0531 33.3541 23.2219 33.2943 23.3792ZM33.1713 21.5202H30.9606L30.9176 21.6527L31.0064 21.7407C31.1012 21.8335 31.0965 21.9438 31.0151 22.1804L29.4688 26.6413H30.8827L31.4857 24.8711H31.9631L32.4949 26.6413H33.9122L33.2466 24.8294C33.6331 24.7669 33.8274 24.6559 34.0211 24.4832C34.288 24.2398 34.4729 23.8982 34.6255 23.3953C34.8487 22.6659 34.7136 22.249 34.571 22.0352C34.374 21.7407 33.9585 21.5202 33.1713 21.5202ZM36.0703 28.3927C32.1917 30.3969 27.0181 31.5009 21.5003 31.5009C15.9832 31.5009 10.8103 30.3969 6.93102 28.3927C3.20028 26.4645 1.1443 23.9534 1.1443 21.3232C1.1443 18.6911 3.20028 16.1799 6.93102 14.253C10.8103 12.2495 15.9832 11.1442 21.5003 11.1442C27.0181 11.1442 32.1917 12.2495 36.0703 14.253C39.8017 16.1799 41.8557 18.6911 41.8557 21.3232C41.8557 23.9534 39.8017 26.4645 36.0703 28.3927ZM36.5954 13.2365C32.5561 11.1496 27.1956 10.0006 21.5003 10.0006C15.8051 10.0006 10.4439 11.1496 6.40593 13.2365C4.01379 14.4729 0 17.1676 0 21.3232C0 25.4769 4.01379 28.1722 6.40593 29.4086C10.4433 31.4955 15.8037 32.6445 21.5003 32.6445C27.1963 32.6445 32.5567 31.4955 36.5954 29.4086C38.9876 28.1722 43 25.4775 43 21.3232C43 17.1669 38.9876 14.4729 36.5954 13.2365ZM35.5271 27.3419C31.354 29.4974 26.1629 30.3169 21.5003 30.3169C16.8371 30.3169 11.6474 29.4974 7.47291 27.3419C5.26432 26.1996 2.32827 24.0952 2.32827 21.3232C2.32827 18.5485 5.26365 16.4462 7.47291 15.3046C11.6474 13.1491 16.8371 12.3295 21.5003 12.3295C26.1629 12.3295 31.354 13.1477 35.5271 15.3046C37.7377 16.4462 40.6724 18.5485 40.6724 21.3232C40.6724 24.0966 37.737 26.1996 35.5271 27.3419ZM35.7436 14.8843C31.5066 12.6932 26.2308 11.8548 21.5003 11.8548C16.7692 11.8548 11.4948 12.6939 7.25575 14.8843C4.87571 16.1134 1.85495 18.332 1.85495 21.3232C1.85495 24.3117 4.87571 26.5317 7.25575 27.7621C11.4948 29.9512 16.7705 30.7903 21.5003 30.7903C26.2308 30.7903 31.5066 29.9525 35.7436 27.7621C38.125 26.5317 41.1457 24.3117 41.1457 21.3232C41.1457 18.332 38.1256 16.1134 35.7436 14.8843ZM10.813 22.1804L6.94917 23.4511L6.4772 24.746H9.88455L10.3283 23.5258H7.9664L10.6476 22.6181L10.813 22.1804ZM26.1878 16.5067H26.7478C27.1291 16.5067 27.3395 16.6344 27.3442 16.9296C27.3476 17.1198 27.2965 17.3807 27.0988 17.9421C26.924 18.4443 26.7841 18.7354 26.5858 18.9486C26.4265 19.1166 26.2147 19.1913 25.7286 19.1913H25.2607L26.1878 16.5067ZM24.9601 15.952L23.4313 20.4129H25.6869C26.6537 20.4129 27.2057 20.1984 27.6535 19.7184C28.2155 19.124 28.7292 17.5777 28.7124 16.7265C28.6956 15.8579 28.1349 15.2925 26.9549 15.2925H24.9057L24.8626 15.4242L24.9514 15.511C25.0455 15.6044 25.0422 15.7147 24.9601 15.952ZM33.4718 17.1286H30.0644L29.6207 18.3475H31.9819L29.3 19.2578L29.1346 19.6942L32.9985 18.4235L33.4718 17.1286ZM18.2429 20.4102H19.5271L20.6472 17.0976L21.302 20.4102H22.5875L24.3396 15.2904L22.9963 15.2925L22.0604 18.0752L21.5259 15.2925H19.7153L19.6709 15.4242L19.7597 15.511C19.8552 15.6044 19.8504 15.7147 19.7691 15.952L18.2429 20.4102ZM9.03607 20.4129L12.5302 20.4115L12.9524 19.1913H10.9213L12.2632 15.2925H10.5112L10.4675 15.4242L10.5549 15.511C10.6503 15.6044 10.6463 15.7147 10.5643 15.952L9.03607 20.4129ZM16.47 16.7077H16.5157L16.5399 18.2541H15.5973L16.47 16.7077ZM12.8925 20.4102H14.3791L15.0231 19.2787H16.5621L16.5776 20.4102H17.9262L17.6351 15.2925H15.6161L15.5711 15.4242L15.6363 15.4894C15.7425 15.5937 15.6988 15.7436 15.3055 16.3675L12.8925 20.4102Z" fill="black"></path></g></svg>